/* XPM */
static char * dev_grey_en_xpm[] = {
"20 20 3 1",
" 	s none	m none	g4 none	g none	c none",
".	c #666666666666",
"X	c #999999999999",
"                    ",
"                    ",
"                    ",
"               .    ",
"              ..    ",
"             ...    ",
"            X...    ",
"            ...     ",
"           X..      ",
"           ..       ",
"      .   X.X       ",
"      ..  ..        ",
"       .. .X        ",
"        ...X        ",
"        ...         ",
"         ..         ",
"         .X         ",
"                    ",
"                    ",
"                    "};
