/* XPM */
static char *dp_sel[] = {
/* width height num_colors chars_per_pixel */
"    20    18        5            1",
/* colors */
". c #000000",
"# c #999999",
"a c #cccc99",
"b c #ffffff",
"c c #d4d0c8",
/* pixels */
"cccccccccccccccccccc",
"ccc..cccccccc#cccccc",
"cc.ab..cccccc#c...cc",
"cc.baba.ccccc#cccccc",
"cc......ccccc#cccccc",
"cc.cccccccccc#c...cc",
"cc.cccccccccc#cccccc",
"cc.ccc..ccccc#cccccc",
"cc.cc.ab..ccc#c...cc",
"cc....baba.cc#cccccc",
"cc.cc......cc#cccccc",
"cc.cccccccccc#c...cc",
"cc.cccccccccc#cccccc",
"cc.ccc..ccccc#cccccc",
"cc.cc.ab..ccc#c...cc",
"cc....baba.cc#cccccc",
"cc.cc......cc#cccccc",
"cc.cccccccccc#c...cc"
};
SIMPLE  =                    T                                                  BITPIX  =                    8                                                  NAXIS   =                    2                                                  NAXIS1  =                   20                                                  NAXIS2  =                   18                                                  HISTORY Written by XV 3.10a                                                     END                                                                                                                                                                                                                                                                                                                                                                                                                                                                                                                                                                                                                                                                                                                                                                                                                                                                                                                                                                                                                                                                                                                                                                                                                                                                                                                                                                                                                                                                                                                                                                                                                                                                                                                                                                                                                                                                                                                                                                                                                                                                                                                                                                                                                                                                                                                                                                                                                                                                                             лл ллллллллллЎл   лллл лл      ллЎлллллллл     ─ ─ ллЎлллллллл лл ─   лллЎл   лллл ллл  лллллЎлллллллл ллллллллллЎлллллллл ллллллллллЎл   лллл лл      ллЎлллллллл     ─ ─ ллЎлллллллл лл ─   лллЎл   лллл ллл  лллллЎлллллллл ллллллллллЎлллллллл ллллллллллЎл   лллл      лллллЎлллллллл  ─ ─ лллллЎлллллллл ─   ллллллЎл   ллллл  ллллллллЎлллллллллллллллллллллллллл                                                                                                                                                                                                                                                                                                                                                                                                                                                                                                                                                                                                                                                                                                                                                                                                                                                                                                                                                                                                                                                                                                                                                                                                                                                                                                                                                                                                                                                                                                                                                                                                                                                                                                                                                                                                                                                                                                                                                                                                                                                                                                                                                                                                                                                                                                                                                                                                                                                                                                                                                                                                                        