/* XPM */
static char * dev_grey_dis_xpm[] = {
"20 20 2 1",
" 	s none	m none	g4 none	g none	c none",
".	c #666666666666",
"                    ",
"                    ",
"                    ",
"                    ",
"             ..     ",
"     ..     ..      ",
"      ...  ..       ",
"        ....        ",
"         ...        ",
"        .....       ",
"        .. ...      ",
"       ..   ..      ",
"       ..    ..     ",
"      ..      .     ",
"      .             ",
"                    ",
"                    ",
"                    ",
"                    ",
"                    "};
