/* XPM */
static char * D:\pvss\ac\images\23_tmp\5_xpm[] = {
"40 40 6 1",
" 	s none	m none	g4 none	g none	c none",
".	c #000000000000",
"X	c #000099999999",
"o	c #000000009999",
"O	c #FFFFFFFFFFFF",
"+	c #6666FFFFFFFF",
" ..................                     ",
".XoOOOOOOOOOOOOOOXX.                    ",
".Xo              oX.                    ",
".Xo              oX.     ..             ",
".Xo              oX.    . .             ",
".Xo              oX.   .  .....         ",
".Xo              oX.  .      .+.        ",
".Xo              oX. .       .++.       ",
".Xo              oX.  .      .+++.      ",
".Xo              oX.   .  ....+++.      ",
".XooooooooooooooooX.    . .  .+++.      ",
".XXXXXXXXXXXXXXXXXX.     ..  .+++.      ",
".XXXXXXXXXXXXXXXXXX.         .+++.      ",
".XXXXoooooooooooXXX.       ...+++...    ",
".XXXXo         oXXX.       .+++++++.    ",
".XXXXo  ...    oXXX.        .+++++.     ",
".XXXXo  ...    oXXX.         .+++.      ",
".XXXXoOO...OOOOoXXX.          .+.       ",
"..ooooXXXXXXXXXoooo.           .        ",
" ..................                     ",
"                     .................. ",
"                    .XoOOOOOOOOOOOOOOXX.",
"                    .Xo              oX.",
"                    .Xo              oX.",
"                    .Xo              oX.",
"                    .Xo              oX.",
"                    .Xo              oX.",
"                    .Xo              oX.",
"                    .Xo              oX.",
"                    .Xo              oX.",
"                    .XooooooooooooooooX.",
"                    .XXXXXXXXXXXXXXXXXX.",
"                    .XXXXXXXXXXXXXXXXXX.",
"                    .XXXXoooooooooooXXX.",
"                    .XXXXo         oXXX.",
"                    .XXXXo  ...    oXXX.",
"                    .XXXXo  ...    oXXX.",
"                    .XXXXoOO...OOOOoXXX.",
"                    ..ooooXXXXXXXXXoooo.",
"                     .................. "};
