/* XPM */
static char *dp_sel_more[] = {
/* width height num_colors chars_per_pixel */
"    21    18        4            1",
/* colors */
". c #000000",
"# c #cccc99",
"a c #ffffff",
"b c #d4d0c8",
/* pixels */
"bbbbbbbbbbbbbbbbbbbbb",
"bbb..bbbbbbbbbb..bbbb",
"bb.#a..bbbbbbbb..bbbb",
"bb.a#a#.bbbbbbb..bbbb",
"bb......bbbbbbb..bbbb",
"bb.bbbbbbbb..........",
"bb.bbbbbbbb..........",
"bb.bbb..bbbbbbb..bbbb",
"bb.bb.#a..bbbbb..bbbb",
"bb....a#a#.bbbb..bbbb",
"bb.bb......bbbb..bbbb",
"bb.bbbbbbbbbbbbbbbbbb",
"bb.bbbbbbbbbbbbbbbbbb",
"bb.bbb..bbbbbbbbbbbbb",
"bb.bb.#a..bbbbbbbbbbb",
"bb....a#a#.bbbbbbbbbb",
"bb.bb......bbbbbbbbbb",
"bb.bbbbbbbbbbbbbbbbbb"
};
SIMPLE  =                    T                                                  BITPIX  =                    8                                                  NAXIS   =                    2                                                  NAXIS1  =                   21                                                  NAXIS2  =                   18                                                  HISTORY Written by XV 3.10a                                                     END                                                                                                                                                                                                                                                                                                                                                                                                                                                                                                                                                                                                                                                                                                                                                                                                                                                                                                                                                                                                                                                                                                                                                                                                                                                                                                                                                                                                                                                                                                                                                                                                                                                                                                                                                                                                                                                                                                                                                                                                                                                                                                                                                                                                                                                                                                                                                                                                                                                                                             лл лллллллллллллллллллл лл      лллллллллллл     ─ ─ лллллллллллл лл ─   ллллллллллллл ллл  ллллллллллллллл лллллллллллллллллллл лллллллллллллллллллл лл      лллл  лллллл     ─ ─ лллл  лллллл лл ─   ллллл  лллллл ллл  ллллллл  лллллл лллллллл          лл лллллллл          лл      ллллллл  лллллл  ─ ─ ллллллл  лллллл ─   лллллллл  ллллллл  лллллллллл  ллллллллллллллллллллллллл                                                                                                                                                                                                                                                                                                                                                                                                                                                                                                                                                                                                                                                                                                                                                                                                                                                                                                                                                                                                                                                                                                                                                                                                                                                                                                                                                                                                                                                                                                                                                                                                                                                                                                                                                                                                                                                                                                                                                                                                                                                                                                                                                                                                                                                                                                                                                                                                                                                                                                                                                                                                      